<?xml version="1.0" encoding="UTF-8"?>
<svg id="Ebene_1" xmlns="http://www.w3.org/2000/svg" version="1.1" viewBox="0 0 31 23">
  <!-- Generator: Adobe Illustrator 29.8.1, SVG Export Plug-In . SVG Version: 2.1.1 Build 2)  -->
  <path d="M8.64,20.52c4.77,0,8.64-3.87,8.64-8.64S13.41,3.25,8.64,3.25,0,7.12,0,11.89s3.87,8.64,8.64,8.64h0Z" fill="#c7ddd9"/>
  <path d="M16.21,21.11v-3.44c0-.42.17-.83.47-1.12.3-.3.7-.46,1.13-.46h3.23c.42,0,.83.17,1.13.47.15.15.27.32.35.52.08.19.12.4.12.61v3.44c0,.18.03.36.1.53s.17.32.3.45c.26.26.61.4.98.4h2.2c1.03,0,2.02-.4,2.75-1.12.36-.36.65-.78.84-1.25.2-.47.3-.97.3-1.48v-9.8c0-.41-.09-.81-.26-1.18-.17-.37-.43-.7-.74-.96L21.61.76c-.63-.51-1.43-.77-2.24-.76s-1.59.31-2.21.84l-7.33,5.87c-.33.25-.6.58-.79.95s-.29.78-.3,1.19v9.79c0,.51.1,1.01.3,1.48s.48.89.84,1.25c.36.36.79.64,1.26.83s.97.29,1.48.29h2.15c.37,0,.72-.14.98-.4.26-.26.41-.61.41-.97h.05Z" fill="#a1b9b5"/>
</svg>