<?xml version="1.0" encoding="UTF-8"?>
<svg id="Ebene_1" xmlns="http://www.w3.org/2000/svg" version="1.1" viewBox="0 0 18 23">
  <!-- Generator: Adobe Illustrator 29.8.1, SVG Export Plug-In . SVG Version: 2.1.1 Build 2)  -->
  <path d="M.82,18.73c0-2.99,3.92-3.74,8.5-3.74s8.5.77,8.5,3.77-3.92,3.74-8.5,3.74-8.5-.78-8.5-3.77ZM3.69,6.32c-.02-.75.12-1.5.39-2.2.27-.7.69-1.34,1.21-1.88.52-.54,1.15-.97,1.84-1.27.69-.3,1.43-.46,2.19-.47.75,0,1.5.17,2.19.47.69.3,1.32.73,1.84,1.27.52.54.93,1.18,1.21,1.88.27.7.41,1.45.39,2.2.02.75-.12,1.5-.39,2.2-.27.7-.69,1.34-1.21,1.88-.52.54-1.15.97-1.84,1.27-.69.3-1.43.46-2.19.47-.75-.01-1.5-.17-2.19-.47-.69-.3-1.32-.73-1.84-1.27-.52-.54-.93-1.18-1.21-1.88-.27-.7-.41-1.45-.39-2.2Z" fill="#a1b9b5"/>
</svg>