<?xml version="1.0" encoding="UTF-8"?>
<svg id="Ebene_1" xmlns="http://www.w3.org/2000/svg" version="1.1" viewBox="0 0 391.44 325.69">
  <!-- Generator: Adobe Illustrator 29.8.1, SVG Export Plug-In . SVG Version: 2.1.1 Build 2)  -->
  <path d="M391.43,176.57c-2.02,5.03-3.92,9.24-8.39,12.63-1.41,1.07-7.53,4.19-8.81,4.19H108.58l85.49,86.9c4.9,9.04,3.47,18.07-2.91,25.88-10.17,12.44-25.94,27.5-42.08,14.53L4.98,176.6c-6.64-8.52-6.65-19.04,0-27.56L149.08,4.94c16.27-12.87,31.84,2,42.08,14.53,7.16,8.76,7.87,18.62,1.15,27.94l-84.49,84.84h265.65c.44,0,4.85,1.6,5.66,1.98,6.72,3.16,10.24,9.53,12.3,16.37v25.99-.02Z" fill="#4da895"/>
</svg>