<?xml version="1.0" encoding="UTF-8"?>
<svg id="Ebene_1" xmlns="http://www.w3.org/2000/svg" version="1.1" viewBox="0 0 21 21">
  <!-- Generator: Adobe Illustrator 29.8.1, SVG Export Plug-In . SVG Version: 2.1.1 Build 2)  -->
  <path d="M20.71,18.16l-4.09-4.09c-.18-.18-.43-.29-.7-.29h-.67c1.13-1.45,1.8-3.27,1.8-5.25.01-4.71-3.81-8.53-8.52-8.53S0,3.82,0,8.53s3.82,8.53,8.53,8.53c1.98,0,3.8-.67,5.25-1.8v.67c0,.26.1.51.29.7l4.09,4.09c.39.39,1.01.39,1.39,0l1.16-1.16c.39-.39.39-1.01,0-1.39h0ZM8.53,13.78c-2.9,0-5.25-2.35-5.25-5.25s2.35-5.25,5.25-5.25,5.25,2.35,5.25,5.25-2.35,5.25-5.25,5.25Z" fill="#fff"/>
</svg>