<?xml version="1.0" encoding="UTF-8"?>
<svg id="Ebene_1" xmlns="http://www.w3.org/2000/svg" baseProfile="tiny" version="1.2" viewBox="0 0 14.98 14.96">
  <!-- Generator: Adobe Illustrator 29.8.1, SVG Export Plug-In . SVG Version: 2.1.1 Build 2)  -->
  <circle cx="7.48" cy="7.48" r="7.27" fill="#e7efed"/>
  <path d="M6.88.02c6.39-.43,10.44,6.7,6.63,11.9-3.17,4.33-9.76,3.98-12.48-.63S1.41.39,6.88.02ZM8.12,5.37c.05-.01.06.02.09.05.49.38.94,1.05,1.43,1.44.66.52,1.45-.29.92-.92l-2.69-2.69c-.29-.2-.57-.17-.84.05-.92.74-1.74,1.88-2.66,2.66-.41.53.09,1.25.73,1.03.36-.12,1.25-1.26,1.64-1.56.03-.02.04-.06.09-.05v5.54s.09.17.11.2c.26.37.8.37,1.06,0,.02-.03.11-.19.11-.2v-5.54h.01Z" fill="#4da895"/>
</svg>