<?xml version="1.0" encoding="UTF-8"?>
<svg id="Ebene_1" xmlns="http://www.w3.org/2000/svg" version="1.1" viewBox="0 0 28 25">
  <!-- Generator: Adobe Illustrator 29.8.1, SVG Export Plug-In . SVG Version: 2.1.1 Build 2)  -->
  <path d="M26.73,13.47l-3.39-7.26c-.05-.1-.13-.18-.22-.23-.1-.05-.21-.08-.32-.07h-2.88c-.16,0-.31.06-.42.18-.11.11-.18.27-.18.42s.06.31.18.42c.11.11.27.18.42.18h2.49l2.79,6h-3.42c-.76,0-1.5.21-2.14.62-.64.41-1.15,1-1.46,1.69-.23.48-.58.88-1.03,1.16-.45.28-.96.43-1.49.43h-3.48c-.53,0-1.04-.15-1.49-.43-.45-.28-.8-.68-1.03-1.16-.31-.69-.82-1.28-1.46-1.69-.64-.41-1.38-.63-2.14-.62h-3.36l3.3-6h1.92c.16,0,.31-.06.42-.18.11-.11.18-.27.18-.42s-.06-.31-.18-.42c-.11-.11-.27-.18-.42-.18h-2.28c-.11-.01-.21,0-.31.06-.1.05-.18.12-.23.21l-3.96,7.26c-.07.06-.11.15-.12.24v7.47c.02.81.36,1.58.93,2.15.58.57,1.35.9,2.16.91h19.61c.81-.01,1.58-.34,2.16-.91.58-.57.91-1.34.93-2.15v-7.47c-.01-.08-.04-.15-.09-.21ZM25.62,21.15c-.02.49-.23.96-.58,1.3-.35.34-.82.54-1.31.56H4.12c-.49-.01-.96-.21-1.31-.56s-.56-.81-.58-1.3v-6.84h3.84c.53,0,1.04.15,1.49.43.45.28.8.68,1.03,1.16.31.69.82,1.28,1.46,1.69.64.41,1.38.63,2.14.62h3.48c.76,0,1.5-.21,2.14-.62.64-.41,1.15-1,1.46-1.69.23-.48.58-.88,1.03-1.16.45-.28.96-.43,1.49-.43h3.84v6.84h0Z" fill="#a1b9b5" stroke="#a1b9b5" stroke-miterlimit="10"/>
  <path d="M13.5,14.67c.1.11.24.18.39.18.15,0,.3-.05.41-.15.01-.01.02-.02.03-.04l4.08-4.11c.09-.12.13-.26.12-.4-.01-.14-.07-.28-.17-.38-.1-.1-.24-.16-.38-.17s-.29.03-.4.12l-3.06,3.06V1.39c0-.16-.06-.31-.18-.42-.11-.11-.27-.18-.42-.18s-.31.06-.42.18c-.11.11-.18.27-.18.42v11.39l-3.06-3.06c-.12-.09-.26-.13-.4-.12-.14.01-.28.07-.38.17-.1.1-.16.24-.17.38-.01.14.03.29.12.4l4.09,4.11Z" fill="#a1b9b5" stroke="#a1b9b5" stroke-miterlimit="10"/>
  <path d="M26.73,13.47l-3.39-7.26c-.05-.1-.13-.18-.22-.23-.1-.05-.21-.08-.32-.07h-2.88c-.16,0-.31.06-.42.18-.11.11-.18.27-.18.42s.06.31.18.42c.11.11.27.18.42.18h2.49l2.79,6h-3.42c-.76,0-1.5.21-2.14.62-.64.41-1.15,1-1.46,1.69-.23.48-.58.88-1.03,1.16-.45.28-.96.43-1.49.43h-3.48c-.53,0-1.04-.15-1.49-.43-.45-.28-.8-.68-1.03-1.16-.31-.69-.82-1.28-1.46-1.69-.64-.41-1.38-.63-2.14-.62h-3.36l3.3-6h1.92c.16,0,.31-.06.42-.18.11-.11.18-.27.18-.42s-.06-.31-.18-.42c-.11-.11-.27-.18-.42-.18h-2.28c-.11-.01-.21,0-.31.06-.1.05-.18.12-.23.21l-3.96,7.26c-.07.06-.11.15-.12.24v7.47c.02.81.36,1.58.93,2.15.58.57,1.35.9,2.16.91h19.61c.81-.01,1.58-.34,2.16-.91.58-.57.91-1.34.93-2.15v-7.47c-.01-.08-.04-.15-.09-.21ZM25.62,21.15c-.02.49-.23.96-.58,1.3-.35.34-.82.54-1.31.56H4.12c-.49-.01-.96-.21-1.31-.56s-.56-.81-.58-1.3v-6.84h3.84c.53,0,1.04.15,1.49.43.45.28.8.68,1.03,1.16.31.69.82,1.28,1.46,1.69.64.41,1.38.63,2.14.62h3.48c.76,0,1.5-.21,2.14-.62.64-.41,1.15-1,1.46-1.69.23-.48.58-.88,1.03-1.16.45-.28.96-.43,1.49-.43h3.84v6.84h0Z" fill="#a1b9b5" stroke="#a1b9b5" stroke-miterlimit="10"/>
  <path d="M13.5,14.67c.1.11.24.18.39.18.15,0,.3-.05.41-.15.01-.01.02-.02.03-.04l4.08-4.11c.09-.12.13-.26.12-.4-.01-.14-.07-.28-.17-.38-.1-.1-.24-.16-.38-.17s-.29.03-.4.12l-3.06,3.06V1.39c0-.16-.06-.31-.18-.42-.11-.11-.27-.18-.42-.18s-.31.06-.42.18c-.11.11-.18.27-.18.42v11.39l-3.06-3.06c-.12-.09-.26-.13-.4-.12-.14.01-.28.07-.38.17-.1.1-.16.24-.17.38-.01.14.03.29.12.4l4.09,4.11Z" fill="#a1b9b5" stroke="#a1b9b5" stroke-miterlimit="10"/>
</svg>