<?xml version="1.0" encoding="UTF-8"?>
<svg id="Ebene_1" xmlns="http://www.w3.org/2000/svg" version="1.1" viewBox="0 0 18 23">
  <!-- Generator: Adobe Illustrator 29.8.1, SVG Export Plug-In . SVG Version: 2.1.1 Build 2)  -->
  <path d="M5.68,5.34h7.21M15.28,1.29H3.43c-.47,0-.92.18-1.25.5-.34.32-.54.76-.56,1.23v17.53c0,.28.07.55.23.78.08.12.19.21.32.28.13.07.27.1.41.1.31-.01.61-.14.84-.35l5.3-4.5c.18-.14.41-.22.64-.22s.46.08.64.22l5.28,4.5c.22.21.51.34.82.36.47,0,.92-.36.92-1.16V3.02c0-.46-.19-.9-.52-1.23-.33-.32-.77-.51-1.23-.51Z" fill="none" stroke="#a1b9b5" stroke-linecap="round" stroke-width="1.8"/>
</svg>