<?xml version="1.0" encoding="UTF-8"?>
<svg id="Ebene_1" xmlns="http://www.w3.org/2000/svg" version="1.1" viewBox="0 0 343.96 382.49">
  <!-- Generator: Adobe Illustrator 29.8.1, SVG Export Plug-In . SVG Version: 2.1.1 Build 2)  -->
  <path d="M342.39,9.29l1.57,360.54c.03,7.31-6.53,12.87-13.74,11.65l-51.71-8.79c-5.66-.96-9.79-5.85-9.79-11.59,0-32.21.11-132.37,1.47-143.4.57-4.59,5.78-213.14,7.9-216.48.83-1.31,35.18-1.05,56.12-.33,4.54.16,8.15,3.87,8.17,8.41h0Z" fill="#b7f3bb"/>
  <path d="M60.43,0c5.92.05,11.21,3.7,13.35,9.21,14.69,37.89,70.7,183.44,97.41,257.14,12.14,33.5,23.69,67.32,36.82,100.44.06.16.1.34.1.51l4.54.06c0,.78-5.18,1.35-5.96,1.35-22.37-.02-55.88-.42-70.41-.61-4.29-.06-8.09-2.78-9.52-6.82-17.15-48.4-34.14-96.87-51.22-145.28C52.91,151.88,22.69,141.36.02,77.2-.03,77.05.02,35.38.02,35.22V13.6C.02,6.56,5.65.81,12.7.66,38.15.14,60.43,0,60.43,0Z" fill="#b7f3bb"/>
  <path d="M339.99,9.29c-12.8,40.99-69.27,204.2-69.79,208.4-7.52,15.85-33.01,96.69-52.16,145.62-1.27,3.25-4.41,5.4-7.9,5.39-.84,0,.76-5.02.25-5.01,0,0-6.19-14.18-7.34-18.64-5.63-21.81-13.31-35.29-19.76-56.28-3.96-12.86-4.52-21.27-5.38-34.17L266.61,8.8c1.64-4.56,5.97-7.59,10.81-7.59h56.62c4.2,0,7.2,4.07,5.95,8.08Z" fill="#4da895"/>
  <path d="M67.64,236.5c1.18,3.95,2.67,10.84,6.22,13.08-.2,38.72.25,77.52-.1,116.24-.04,4.46-3.35,8.21-7.77,8.83l-55.73,7.76c-5.41.75-10.24-3.45-10.24-8.91V11.22c3.28,7.29,4.4,17.03,5.25,20.01,0,0,41.62,135.8,62.37,205.27Z" fill="#4da895"/>
  <path d="M.02,11.22c22.68,64.19,51.65,137.18,74.31,201.38-.58,6.35-.55,9.81-.42,12.65.39,8.23.04,62.78-.01,71.02C71.11,294.51,19.24,113.13.02,35.22c.02-15.18.62-20.75,0-24Z" fill="#249177"/>
  <path d="M187.46,228.13c1.67,26.43,26.77,108.67,32.4,130.48-3.02,10.09-7.36,10.11-11.76,10.11-13.17-33.2-24.75-66.42-36.92-100l16.28-40.59Z" fill="#249177"/>
</svg>